999
FreeCAD v0.20 29603 (Git)
  0
SECTION
  2
HEADER
  9
$ACADVER
  1
AC1014
  9
$ACADMAINTVER
 70
     9
  9
$DWGCODEPAGE
  3
ANSI_1252
  9
$TEXTSTYLE
  7
STANDARD
  9
$DIMSTYLE
  2
STANDARD
  9
$DIMTXSTY
  7
STANDARD
  9
$CMLSTYLE
  2
STANDARD
  9
$LUNITS
 70
2
  9
$INSUNITS
 70
4
  9
$PEXTMAX
 10
50
 20
50
 30
50
  9
$PEXTMIN
 10
0
 20
0
 30
0
  9
$HANDSEED
  5
FFFF
  0
ENDSEC
  0
SECTION
  2
CLASSES
  0
CLASS
  1
ACDBDICTIONARYWDFLT
  2
AcDbDictionaryWithDefault
  3
ObjectDBX Classes
 90
        0
280
     0
281
     0
  0
CLASS
  1
XRECORD
  2
AcDbXrecord
  3
ObjectDBX Classes
 90
        0
280
     0
281
     0
  0
CLASS
  1
LWPOLYLINE
  2
AcDbPolyline
  3
ObjectDBX Classes
 90
        0
280
     0
281
     1
  0
ENDSEC
  0
SECTION
  2
TABLES
  0
TABLE
  2
VPORT
  5
20
330
0
100
AcDbSymbolTable
 70
     1
  0
VPORT
  5
21
330
20
100
AcDbSymbolTableRecord
100
AcDbViewportTableRecord
  2
*ACTIVE
 70
     0
  0
ENDTAB
  0
TABLE
  2
LTYPE
  5
22
330
0
100
AcDbSymbolTable
 70
     1
  0
LTYPE
  5
23
330
21
100
AcDbSymbolTableRecord
100
AcDbLinetypeTableRecord
  2
BYBLOCK
 70
     0
  3

 72
    65
 73
     0
 40
0.0
  0
LTYPE
  5
24
330
21
100
AcDbSymbolTableRecord
100
AcDbLinetypeTableRecord
  2
BYLAYER
 70
     0
  3

 72
    65
 73
     0
 40
0.0
  0
LTYPE
  5
25
330
21
100
AcDbSymbolTableRecord
100
AcDbLinetypeTableRecord
  2
CONTINUOUS
 70
     0
  3
Solid line
 72
    65
 73
     0
 40
0.0
  0
ENDTAB
  0
TABLE
  2
LAYER
  5
A31
330
0
100
AcDbSymbolTable
 70
3
  0
LAYER
  5
A32
330
A31
100
AcDbSymbolTableRecord
100
AcDbLayerTableRecord
  2
0
 70
   0
 62
   7
  6
CONTINUOUS
  0
LAYER
  5
A33
330
A31
100
AcDbSymbolTableRecord
100
AcDbLayerTableRecord
  2
none
 70
    0
 62
    7
  6
CONTINUOUS
  0
LAYER
  5
A34
330
A31
100
AcDbSymbolTableRecord
100
AcDbLayerTableRecord
  2
Shape2DView
 70
    0
 62
    7
  6
CONTINUOUS
  0
ENDTAB
  0
TABLE
  2
STYLE
  5
70
330
0
100
AcDbSymbolTable
 70
     2
  0
STYLE
  5
71
330
70
100
AcDbSymbolTableRecord
100
AcDbTextStyleTableRecord
  2
STANDARD
 70
     0
 40
0.0
 41
1.0
 50
0.0
 71
     0
 42
2.5
  3
arial.ttf
  4

  0
STYLE
  5
72
330
70
100
AcDbSymbolTableRecord
100
AcDbTextStyleTableRecord
  2
ANNOTATIVE
 70
     0
 40
0.0
 41
1.0
 50
0.0
 71
     0
 42
2.5
  3
arial.ttf
  4

  0
ENDTAB
  0
TABLE
  2
VIEW
  5
73
330
0
100
AcDbSymbolTable
 70
     0
  0
ENDTAB
  0
TABLE
  2
UCS
  5
74
330
0
100
AcDbSymbolTable
 70
     0
  0
ENDTAB
  0
TABLE
  2
APPID
  5
75
330
0
100
AcDbSymbolTable
 70
     2
  0
APPID
  5
76
330
75
100
AcDbSymbolTableRecord
100
AcDbRegAppTableRecord
  2
ACAD
 70
     0
  0
APPID
  5
77
330
75
100
AcDbSymbolTableRecord
100
AcDbRegAppTableRecord
  2
ACADANNOTATIVE
 70
     0
  0
ENDTAB
  0
TABLE
  2
DIMSTYLE
  5
78
330
0
100
AcDbSymbolTable
 70
     2
  0
DIMSTYLE
105
79
330
78
100
AcDbSymbolTableRecord
100
AcDbDimStyleTableRecord
  2
STANDARD
 70
     0
  3

  4

  5

  6

  7

 40
0.0
 41
2.5
 42
0.625
 43
3.75
 44
1.25
 45
0.0
 46
0.0
 47
0.0
 48
0.0
140
2.5
141
2.5
142
0.0
143
0.03937007874016
144
1.0
145
0.0
146
1.0
147
0.625
 71
     0
 72
     0
 73
     0
 74
     0
 75
     0
 76
     0
 77
     1
 78
     8
170
     0
171
     3
172
     1
173
     0
174
     0
175
     0
176
     0
177
     0
178
     0
270
     2
271
     2
272
     2
273
     2
274
     3
340
71
275
     0
280
     0
281
     0
282
     0
283
     0
284
     8
285
     0
286
     0
287
     3
288
     0
  0
ENDTAB
  0
TABLE
  2
BLOCK_RECORD
  5
A01
330
0
100
AcDbSymbolTable
  70
5
  0
BLOCK_RECORD
  5
A02
330
A01
100
AcDbSymbolTableRecord
100
AcDbBlockTableRecord
  2
*MODEL_SPACE
  0
BLOCK_RECORD
  5
A03
330
A01
100
AcDbSymbolTableRecord
100
AcDbBlockTableRecord
  2
*PAPER_SPACE
  0
ENDTAB
  0
ENDSEC
  0
SECTION
  2
BLOCKS
  0
BLOCK
  5
A04
330
A02
100
AcDbEntity
  8
0
100
AcDbBlockBegin
  2
*MODEL_SPACE
 70
   0
 10
0
 20
0
 30
0
  3
*MODEL_SPACE
  1
 
  0
ENDBLK
  5
A05
330
A02
100
AcDbEntity
  8
0
100
AcDbBlockEnd
  0
BLOCK
  5
A06
330
A03
100
AcDbEntity
 67
1
  8
0
100
AcDbBlockBegin
  2
*PAPER_SPACE
 70
   0
 10
0
 20
0
 30
0
  3
*PAPER_SPACE
  1
 
  0
ENDBLK
  5
A07
330
A03
100
AcDbEntity
 67
    1
  8
0
100
AcDbBlockEnd
  0
ENDSEC
  0
SECTION
  2
ENTITIES
  0
LINE
  5
A08
330
A02
100
AcDbEntity
  8
Shape2DView
100
AcDbLine
 10
-44.9203
 20
2.59312
 30
0
 11
-36.8504
 21
16.2655
 31
0
  0
ARC
  5
A09
330
A02
100
AcDbEntity
  8
Shape2DView
100
AcDbCircle
 10
-44.3115
 20
-4.63128
 30
0
 40
7.25
100
AcDbArc
 50
94.8167
 51
-34.4455
  0
LINE
  5
A0A
330
A02
100
AcDbEntity
  8
Shape2DView
100
AcDbLine
 10
-24.1418
 20
-8.73204
 30
0
 11
-38.3327
 21
-8.73204
 31
0
  0
ARC
  5
A0B
330
A02
100
AcDbEntity
  8
Shape2DView
100
AcDbCircle
 10
-24.1418
 20
-14.0444
 30
0
 40
5.31234
100
AcDbArc
 50
-8.15101
 51
90
  0
LINE
  5
A0C
330
A02
100
AcDbEntity
  8
Shape2DView
100
AcDbLine
 10
-18.8831
 20
-14.7976
 30
0
 11
-20.2109
 21
-24.0676
 31
0
  0
SPLINE
  5
A0D
330
A02
100
AcDbEntity
  8
Shape2DView
100
AcDbSpline
210
0
220
0
230
1
 70
8
 71
3
 72
11
 73
7
 74
0
 40
0
 40
0
 40
0
 40
0
 40
0.5
 40
0.5
 40
0.5
 40
1
 40
1
 40
1
 40
1
 10
-20.2109
 20
-24.0676
 30
0
 10
-20.264
 20
-30.954
 30
0
 10
-18.4988
 20
-32.2779
 30
0
 10
-16.4959
 20
-33.6189
 30
0
 10
-14.4929
 20
-34.9598
 30
0
 10
-12.2524
 20
-36.3177
 30
0
 10
1.77636e-15
 20
-36.2033
 30
0
  0
SPLINE
  5
A0E
330
A02
100
AcDbEntity
  8
Shape2DView
100
AcDbSpline
210
0
220
0
230
1
 70
8
 71
3
 72
11
 73
7
 74
0
 40
0
 40
0
 40
0
 40
0
 40
0.5
 40
0.5
 40
0.5
 40
1
 40
1
 40
1
 40
1
 10
20.0105
 20
-23.9781
 30
0
 10
20.264
 20
-30.954
 30
0
 10
18.4988
 20
-32.2779
 30
0
 10
16.4959
 20
-33.6189
 30
0
 10
14.4929
 20
-34.9598
 30
0
 10
12.2524
 20
-36.3177
 30
0
 10
-1.77636e-15
 20
-36.2033
 30
0
  0
LINE
  5
A0F
330
A02
100
AcDbEntity
  8
Shape2DView
100
AcDbLine
 10
19.0527
 20
-14.6525
 30
0
 11
20.0104
 21
-23.9781
 31
0
  0
ARC
  5
A10
330
A02
100
AcDbEntity
  8
Shape2DView
100
AcDbCircle
 10
24.3717
 20
-14.1062
 30
0
 40
5.34701
100
AcDbArc
 50
90
 51
-174.136
  0
LINE
  5
A11
330
A02
100
AcDbEntity
  8
Shape2DView
100
AcDbLine
 10
24.3717
 20
-8.75921
 30
0
 11
38.7048
 21
-8.75921
 31
0
  0
ARC
  5
A12
330
A02
100
AcDbEntity
  8
Shape2DView
100
AcDbCircle
 10
44.4815
 20
-4.37835
 30
0
 40
7.25
100
AcDbArc
 50
-142.825
 51
85.3907
  0
LINE
  5
A13
330
A02
100
AcDbEntity
  8
Shape2DView
100
AcDbLine
 10
45.0641
 20
2.84821
 30
0
 11
36.8504
 21
16.2655
 31
0
  0
SPLINE
  5
A14
330
A02
100
AcDbEntity
  8
Shape2DView
100
AcDbSpline
210
0
220
0
230
1
 70
8
 71
3
 72
11
 73
7
 74
0
 40
0
 40
0
 40
0
 40
0
 40
0.5
 40
0.5
 40
0.5
 40
1
 40
1
 40
1
 40
1
 10
36.8504
 20
16.2655
 30
0
 10
30.9204
 20
26.2785
 30
0
 10
26.1211
 20
29.0873
 30
0
 10
22.0365
 20
30.9294
 30
0
 10
17.9518
 20
32.7715
 30
0
 10
14.5817
 20
33.647
 30
0
 10
10.5661
 20
34.0385
 30
0
  0
LINE
  5
A15
330
A02
100
AcDbEntity
  8
Shape2DView
100
AcDbLine
 10
10.5661
 20
34.0385
 30
0
 11
8.9844
 21
34.0385
 31
0
  0
ARC
  5
A16
330
A02
100
AcDbEntity
  8
Shape2DView
100
AcDbCircle
 10
8.9844
 20
32.7332
 30
0
 40
1.3053
100
AcDbArc
 50
90
 51
180
  0
LINE
  5
A17
330
A02
100
AcDbEntity
  8
Shape2DView
100
AcDbLine
 10
7.6791
 20
27.4789
 30
0
 11
7.6791
 21
32.7332
 31
0
  0
LINE
  5
A18
330
A02
100
AcDbEntity
  8
Shape2DView
100
AcDbLine
 10
-8.13082
 20
27.4789
 30
0
 11
7.6791
 21
27.4789
 31
0
  0
LINE
  5
A19
330
A02
100
AcDbEntity
  8
Shape2DView
100
AcDbLine
 10
-8.13082
 20
27.4789
 30
0
 11
-8.13082
 21
32.8031
 31
0
  0
ARC
  5
A1A
330
A02
100
AcDbEntity
  8
Shape2DView
100
AcDbCircle
 10
-9.05342
 20
32.8031
 30
0
 40
0.922601
100
AcDbArc
 50
0
 51
90
  0
LINE
  5
A1B
330
A02
100
AcDbEntity
  8
Shape2DView
100
AcDbLine
 10
-10.281
 20
33.7257
 30
0
 11
-9.05342
 21
33.7257
 31
0
  0
SPLINE
  5
A1C
330
A02
100
AcDbEntity
  8
Shape2DView
100
AcDbSpline
210
0
220
0
230
1
 70
8
 71
3
 72
11
 73
7
 74
0
 40
0
 40
0
 40
0
 40
0
 40
0.5
 40
0.5
 40
0.5
 40
1
 40
1
 40
1
 40
1
 10
-36.8504
 20
16.2655
 30
0
 10
-30.9204
 20
26.2785
 30
0
 10
-26.1211
 20
29.0873
 30
0
 10
-22.0365
 20
30.9294
 30
0
 10
-17.9518
 20
32.7715
 30
0
 10
-14.5817
 20
33.647
 30
0
 10
-10.281
 20
33.7257
 30
0
  0
LINE
  5
A1D
330
A02
100
AcDbEntity
  8
Shape2DView
100
AcDbLine
 10
26.3153
 20
14.4759
 30
0
 11
32.7012
 21
3.9578
 31
0
  0
ARC
  5
A1E
330
A02
100
AcDbEntity
  8
Shape2DView
100
AcDbCircle
 10
29.9555
 20
2.29074
 30
0
 40
3.2122
100
AcDbArc
 50
-90
 51
31.2635
  0
LINE
  5
A1F
330
A02
100
AcDbEntity
  8
Shape2DView
100
AcDbLine
 10
29.9555
 20
-0.921458
 30
0
 11
20.1874
 21
-0.921458
 31
0
  0
ARC
  5
A20
330
A02
100
AcDbEntity
  8
Shape2DView
100
AcDbCircle
 10
20.1874
 20
3.50249
 30
0
 40
4.42394
100
AcDbArc
 50
-172.872
 51
-90
  0
LINE
  5
A21
330
A02
100
AcDbEntity
  8
Shape2DView
100
AcDbLine
 10
13.8688
 20
18.3787
 30
0
 11
15.7977
 21
2.95357
 31
0
  0
SPLINE
  5
A22
330
A02
100
AcDbEntity
  8
Shape2DView
100
AcDbSpline
210
0
220
0
230
1
 70
8
 71
3
 72
14
 73
10
 74
0
 40
0
 40
0
 40
0
 40
0
 40
0.333333
 40
0.333333
 40
0.333333
 40
0.666667
 40
0.666667
 40
0.666667
 40
1
 40
1
 40
1
 40
1
 10
26.3153
 20
14.4759
 30
0
 10
23.3093
 20
18.6424
 30
0
 10
20.725
 20
20.2773
 30
0
 10
18.989
 20
21.2882
 30
0
 10
17.253
 20
22.299
 30
0
 10
16.3652
 20
22.6858
 30
0
 10
15.2527
 20
22.6604
 30
0
 10
14.1402
 20
22.6351
 30
0
 10
12.803
 20
22.1976
 30
0
 10
13.8688
 20
18.3787
 30
0
  0
SPLINE
  5
A23
330
A02
100
AcDbEntity
  8
Shape2DView
100
AcDbSpline
210
0
220
0
230
1
 70
8
 71
3
 72
14
 73
10
 74
0
 40
0
 40
0
 40
0
 40
0
 40
0.333333
 40
0.333333
 40
0.333333
 40
0.666667
 40
0.666667
 40
0.666667
 40
1
 40
1
 40
1
 40
1
 10
-26.3153
 20
14.4759
 30
0
 10
-23.3093
 20
18.6424
 30
0
 10
-20.725
 20
20.2773
 30
0
 10
-18.989
 20
21.2882
 30
0
 10
-17.253
 20
22.299
 30
0
 10
-16.3652
 20
22.6858
 30
0
 10
-15.2527
 20
22.6604
 30
0
 10
-14.1402
 20
22.6351
 30
0
 10
-12.803
 20
22.1976
 30
0
 10
-13.8688
 20
18.3787
 30
0
  0
LINE
  5
A24
330
A02
100
AcDbEntity
  8
Shape2DView
100
AcDbLine
 10
-13.8688
 20
18.3787
 30
0
 11
-15.7977
 21
2.95357
 31
0
  0
ARC
  5
A25
330
A02
100
AcDbEntity
  8
Shape2DView
100
AcDbCircle
 10
-20.1874
 20
3.50249
 30
0
 40
4.42394
100
AcDbArc
 50
-90
 51
-7.12755
  0
LINE
  5
A26
330
A02
100
AcDbEntity
  8
Shape2DView
100
AcDbLine
 10
-29.9555
 20
-0.921458
 30
0
 11
-20.1874
 21
-0.921458
 31
0
  0
ARC
  5
A27
330
A02
100
AcDbEntity
  8
Shape2DView
100
AcDbCircle
 10
-29.9555
 20
2.29074
 30
0
 40
3.2122
100
AcDbArc
 50
148.736
 51
-90
  0
LINE
  5
A28
330
A02
100
AcDbEntity
  8
Shape2DView
100
AcDbLine
 10
-26.3153
 20
14.4759
 30
0
 11
-32.7012
 21
3.9578
 31
0
  0
CIRCLE
  5
A29
330
A02
100
AcDbEntity
  8
Shape2DView
100
AcDbCircle
 10
0
 20
14.839
 40
4.39
  0
CIRCLE
  5
A2A
330
A02
100
AcDbEntity
  8
Shape2DView
100
AcDbCircle
 10
0
 20
-23.8283
 40
3.375
  0
LINE
  5
A2B
330
A02
100
AcDbEntity
  8
Shape2DView
100
AcDbLine
 10
-1.99308
 20
-11.9579
 30
0
 11
-1.99308
 21
-14.4579
 31
0
  0
ARC
  5
A2C
330
A02
100
AcDbEntity
  8
Shape2DView
100
AcDbCircle
 10
0.00691514
 20
-14.4579
 30
0
 40
2
100
AcDbArc
 50
-180
 51
0
  0
LINE
  5
A2D
330
A02
100
AcDbEntity
  8
Shape2DView
100
AcDbLine
 10
2.00692
 20
-14.4579
 30
0
 11
2.00692
 21
-11.9579
 31
0
  0
ARC
  5
A2E
330
A02
100
AcDbEntity
  8
Shape2DView
100
AcDbCircle
 10
0.00691514
 20
-11.9579
 30
0
 40
2
100
AcDbArc
 50
0
 51
-180
  0
CIRCLE
  5
A2F
330
A02
100
AcDbEntity
  8
Shape2DView
100
AcDbCircle
 10
44.4815
 20
-4.37835
 40
2.5
  0
CIRCLE
  5
A30
330
A02
100
AcDbEntity
  8
Shape2DView
100
AcDbCircle
 10
-44.3115
 20
-4.63128
 40
2.5
  0
ENDSEC
  0
SECTION
  2
OBJECTS
  0
DICTIONARY
  5
F000
330
0
100
AcDbDictionary
  3
ACAD_GROUP
350
F001
  0
DICTIONARY
  5
F001
330
F000
100
AcDbDictionary
  0
ENDSEC
  0
EOF